# xmcd
# Track frame offsets:
# 182
# 12715
# 26240
# 40137
# 50752
# 66070
# 77507
# 89927
# 103660
# 117845
# 131337
#
# Disc length: 2001 seconds
# Revision: 0
# Processed by: cddbd v1.5.2PL0 Copyright (c) Steve Scherf et al.
# Submitted via: VisiTrax 2.11.1.266 - For more info visit www.synapsa.com
#
DISCID=9707cf0b
DTITLE=Johnny Cash - Rock Of Ages Disc 1
DYEAR=1900
DGENRE=Country
TTITLE0=Folsom Prison Blues
TTITLE1=Orange Blossom Special
TTITLE2=It Ain't Me, Babe
TTITLE3=Big River
TTITLE4=I'm Gonna Try To Be That Way
TTITLE5=Green, green Grass Of Home
TTITLE6=Understand Your Man
TTITLE7=If I Were A Carpenter
TTITLE8=The Long Black Veil
TTITLE9=Don't Think Twice, It's All Right
TTITLE10=Sunday Morning Coming Down
EXTD=
EXTT0=
EXTT1=
EXTT2=
EXTT3=
EXTT4=
EXTT5=
EXTT6=
EXTT7=
EXTT8=
EXTT9=
EXTT10=
PLAYORDER=
